<svg xmlns="http://www.w3.org/2000/svg" width="110" height="22.12" viewBox="0 0 110 22.12"><defs><style>.a{fill:none;stroke:#ED8330;stroke-miterlimit:10;stroke-width:2.4px;} .b{fill:#ED8330;}</style></defs><path class="b" d="M22.86,14.25a2.42,2.42,0,0,1-.3,1.24,2.38,2.38,0,0,1-.82.85,4,4,0,0,1-1.23.49A6.91,6.91,0,0,1,19,17H13.8V6.33H20a2.12,2.12,0,0,1,1,.24,2.44,2.44,0,0,1,.76.63,2.85,2.85,0,0,1,.49.87,3.08,3.08,0,0,1,.17,1A3,3,0,0,1,22,10.5a2.44,2.44,0,0,1-1.15,1,2.94,2.94,0,0,1,1.45.94A2.82,2.82,0,0,1,22.86,14.25ZM16.73,8.82v1.64h2a1,1,0,0,0,.55-.17.74.74,0,0,0,.25-.66A.8.8,0,0,0,19.31,9a.76.76,0,0,0-.5-.19Zm3.16,4.83a1,1,0,0,0-.21-.65.67.67,0,0,0-.54-.26H16.73v1.78H19a.84.84,0,0,0,.6-.22A.81.81,0,0,0,19.89,13.65Z"/><path class="b" d="M34.74,14.44V17H27.15V6.33h7.46V8.88H30.08v1.5H34v2.37H30.08v1.69Z"/><path class="b" d="M45.56,9.81c-.31-.18-.62-.33-.93-.48A8.71,8.71,0,0,0,43.72,9a3.2,3.2,0,0,0-1-.16,1.37,1.37,0,0,0-.62.12.42.42,0,0,0-.23.4.45.45,0,0,0,.14.35,1.19,1.19,0,0,0,.38.25,5.77,5.77,0,0,0,.63.21l.83.26a11.29,11.29,0,0,1,1.33.49,4.36,4.36,0,0,1,1,.64,2.43,2.43,0,0,1,.64.9,3,3,0,0,1,.23,1.27,3.39,3.39,0,0,1-.35,1.61,2.93,2.93,0,0,1-.93,1,4.07,4.07,0,0,1-1.31.57,6.54,6.54,0,0,1-1.46.17,8.28,8.28,0,0,1-1.2-.09,8.55,8.55,0,0,1-1.22-.26,10,10,0,0,1-1.17-.39,7.86,7.86,0,0,1-1-.51l1.27-2.56a7.1,7.1,0,0,0,1.09.58,7.56,7.56,0,0,0,1.09.41,4.31,4.31,0,0,0,1.23.18,1.21,1.21,0,0,0,.67-.13.38.38,0,0,0,.19-.34.47.47,0,0,0-.19-.38,2.06,2.06,0,0,0-.52-.28l-.75-.24c-.29-.07-.59-.17-.91-.28a7.45,7.45,0,0,1-1.22-.52,2.88,2.88,0,0,1-.83-.63,2,2,0,0,1-.49-.8,3,3,0,0,1-.16-1,3.65,3.65,0,0,1,.32-1.56,3.25,3.25,0,0,1,.88-1.12,3.79,3.79,0,0,1,1.27-.68,4.62,4.62,0,0,1,1.5-.24A5.38,5.38,0,0,1,44,6.36,9.49,9.49,0,0,1,45,6.64,9.6,9.6,0,0,1,46,7c.31.13.57.26.81.38Z"/><path class="b" d="M59.65,8.88h-3V17H53.67V8.88H50.59V6.33h9.06Z"/><path class="b" d="M63.72,17V6.33H71V8.88H66.64v1.77h3.57V13H66.64v4Z"/><path class="b" d="M77.24,6.33h2.67L83.6,17h-3L80,14.9H77.15L76.52,17h-3ZM79.52,13l-1-3.3-1,3.3Z"/><path class="b" d="M96.54,14.25a2.42,2.42,0,0,1-.3,1.24,2.38,2.38,0,0,1-.82.85,4,4,0,0,1-1.23.49,6.91,6.91,0,0,1-1.47.15H87.48V6.33h6.18a2.12,2.12,0,0,1,1,.24,2.44,2.44,0,0,1,.76.63,2.85,2.85,0,0,1,.49.87,3.08,3.08,0,0,1,.17,1,3,3,0,0,1-.38,1.44,2.44,2.44,0,0,1-1.15,1,2.94,2.94,0,0,1,1.45.94A2.82,2.82,0,0,1,96.54,14.25ZM90.41,8.82v1.64h2a1,1,0,0,0,.55-.17.74.74,0,0,0,.25-.66A.8.8,0,0,0,93,9a.76.76,0,0,0-.5-.19Zm3.16,4.83a1,1,0,0,0-.21-.65.67.67,0,0,0-.54-.26H90.41v1.78h2.31a.84.84,0,0,0,.6-.22A.81.81,0,0,0,93.57,13.65Z"/><line class="a" y1="1.2" x2="7.68" y2="1.2"/><line class="a" x1="1.2" y1="7.74" x2="1.2" y2="0.06"/><line class="a" y1="20.92" x2="7.68" y2="20.92"/><line class="a" x1="1.2" y1="14.38" x2="1.2" y2="22.06"/><line class="a" x1="110" y1="1.2" x2="102.32" y2="1.2"/><line class="a" x1="108.8" y1="7.74" x2="108.8" y2="0.06"/><line class="a" x1="110" y1="20.92" x2="102.32" y2="20.92"/><line class="a" x1="108.8" y1="14.38" x2="108.8" y2="22.06"/></svg>