<svg xmlns="http://www.w3.org/2000/svg" width="220" height="44" viewBox="0 0 220 44"><defs><style>.a{fill:none;stroke:#000;stroke-miterlimit:10;stroke-width:6px;}</style></defs><path d="M36.6,23.33a5.49,5.49,0,0,1,1.38,4,6.26,6.26,0,0,1-2,4.93A8.55,8.55,0,0,1,30,34.06H17.5V9.94H30a7.63,7.63,0,0,1,5.31,1.8,6.15,6.15,0,0,1,2,4.79,5.53,5.53,0,0,1-.61,2.66,4.57,4.57,0,0,1-1.53,1.71,4.26,4.26,0,0,1-1.82.7v.15A4.91,4.91,0,0,1,36.6,23.33Zm-13.16-8.6v5.18h5.18a3,3,0,0,0,2.13-.74,2.57,2.57,0,0,0,.79-2,2.29,2.29,0,0,0-.78-1.8,2.8,2.8,0,0,0-1.92-.68Zm7.72,13.82a2.56,2.56,0,0,0,.77-2,2.4,2.4,0,0,0-.79-1.89,3,3,0,0,0-2.05-.7H23.44v5.29H29A3.08,3.08,0,0,0,31.16,28.55Z"/><path d="M64.8,29v5.11H46V9.94H64.69v5.11H52v4.54h11.7v4.82H52V29Z"/><path d="M76.47,33.05a7.63,7.63,0,0,1-3.71-4.35l5.94-2.13q1,3.11,4.61,3.1A4.39,4.39,0,0,0,85.92,29a2.11,2.11,0,0,0,1-1.8,1.85,1.85,0,0,0-.49-1.36,3.29,3.29,0,0,0-1.74-.76L79.81,24q-6.48-1.41-6.48-7a6.93,6.93,0,0,1,1.21-4,7.57,7.57,0,0,1,3.38-2.64,12.83,12.83,0,0,1,5-.92,11.8,11.8,0,0,1,5.89,1.39,8,8,0,0,1,3.54,3.9l-5.61,1.84a3.8,3.8,0,0,0-1.61-1.75,4.64,4.64,0,0,0-2.28-.59,3.68,3.68,0,0,0-2.34.7,2.14,2.14,0,0,0-.9,1.75A2,2,0,0,0,80,17.93a2.51,2.51,0,0,0,1.5.72l4.78,1.12q6.63,1.55,6.63,7A6.92,6.92,0,0,1,91.59,31,8.23,8.23,0,0,1,88,33.7a13.49,13.49,0,0,1-5,.9A13.14,13.14,0,0,1,76.47,33.05Z"/><path d="M120.71,15.12H112.9V34.06H107V15.12H99.18V9.94h21.53Z"/><path d="M134.14,15.16v5.08h11.3v5.18h-11.3v8.64H128.2V9.94h18.65v5.22Z"/><path d="M175.25,34.06h-6.34l-1.58-4.39H158l-1.58,4.39h-6.37l9.46-24.12h6.23Zm-9.72-9.5-2.84-7.92-2.85,7.92Z"/><path d="M201.11,23.33a5.45,5.45,0,0,1,1.39,4,6.26,6.26,0,0,1-2.05,4.93,8.55,8.55,0,0,1-5.9,1.84H182V9.94h12.49a7.63,7.63,0,0,1,5.31,1.8,6.15,6.15,0,0,1,2,4.79,5.53,5.53,0,0,1-.61,2.66,4.57,4.57,0,0,1-1.53,1.71,4.26,4.26,0,0,1-1.82.7v.15A4.89,4.89,0,0,1,201.11,23.33ZM188,14.73v5.18h5.18a3,3,0,0,0,2.13-.74,2.57,2.57,0,0,0,.79-2,2.29,2.29,0,0,0-.78-1.8,2.8,2.8,0,0,0-1.92-.68Zm7.72,13.82a2.59,2.59,0,0,0,.77-2,2.4,2.4,0,0,0-.79-1.89,3,3,0,0,0-2-.7H188v5.29h5.54A3.08,3.08,0,0,0,195.68,28.55Z"/><polyline class="a" points="217 28.5 217 41 204.5 41"/><polyline class="a" points="15.5 41 3 41 3 28.5"/><polyline class="a" points="3 15.5 3 3 15.5 3"/><polyline class="a" points="204.5 3 217 3 217 15.5"/></svg>